<svg xmlns="http://www.w3.org/2000/svg" width="88" height="88" fill="none" viewBox="0 0 88 88"><path fill="#450064" fill-rule="evenodd" d="M17.123 17.116C9.707 24.56 6 33.513 6 43.975 6 54.303 9.574 63.12 16.72 70.43a2.266 2.266 0 0 0 0.403 0.403C24.54 78.278 33.498 82 44 82c4.195 0 8.154-0.604 11.878-1.81 5.537-1.777 10.537-4.897 14.999-9.356C78.293 63.457 82 54.504 82 43.974c0-10.461-3.707-19.414-11.123-26.858a74.985 74.985 0 0 0-2.97-2.716C61.097 8.8 53.127 6 44 6c-5.838 0-11.207 1.158-16.106 3.47-3.926 1.845-7.516 4.394-10.77 7.646z" clip-rule="evenodd"/><path fill="#007E8A" fill-rule="evenodd" d="M60.465 7.254L41.8 5 41 11.842 60.501 13l-0.036-5.746z" clip-rule="evenodd"/><path fill="#00CBBD" fill-rule="evenodd" d="M41.8 5l-5.6 4.298-1 6.995-11.3-2.55L15 66.206 65.3 75 74 24.337l-11.95-2.548 2.05-9.743-3.65-4.798L57.1 20.79l-16.5-3.447L41.8 5z" clip-rule="evenodd"/><path fill="#fff" d="M50.75 30.507l-2.134 13.282L46.76 32.4l-7.753 1.194 1.855 11.39-11.179 1.72 1.482 9.098 19.233 5.063 4.96-9.541 3.149-19.605-7.757-1.211zm-7.16 19.055c-0.42 0.339-0.948 0.278-1.5 0.065-0.553-0.212-0.768-0.89-0.513-1.682 0.19-0.588 0.94-0.639 1.314-0.626a0.972 0.972 0 0 1 0.406 0.105c0.258 0.13 0.692 0.403 0.762 0.789 0.102 0.555-0.048 1.01-0.468 1.348v0.001zm5.597 0.915c-0.317 0.48-1.085 0.505-1.819 0.106-0.494-0.27-0.457-0.89-0.382-1.264a1.159 1.159 0 0 1 0.275-0.55c0.193-0.215 0.51-0.492 0.86-0.482 0.57 0.015 1.045 0.29 1.297 0.756 0.254 0.464 0.09 0.953-0.228 1.434h-0.003z"/></svg>